<svg xmlns="http://www.w3.org/2000/svg" xmlns:xlink="http://www.w3.org/1999/xlink" width="300" zoomAndPan="magnify" viewBox="0 0 224.87999 225" height="300" preserveAspectRatio="xMidYMid meet" version="1.0"><defs><clipPath id="b6d4f46061"><path d="M 0 0.0585938 L 224.761719 0.0585938 L 224.761719 224.9375 L 0 224.9375 Z M 0 0.0585938 " clip-rule="nonzero"/></clipPath></defs><g clip-path="url(#b6d4f46061)"><path fill="#ffffff" d="M 0 0.0585938 L 224.878906 0.0585938 L 224.878906 224.941406 L 0 224.941406 Z M 0 0.0585938 " fill-opacity="1" fill-rule="nonzero"/><path fill="#ffffff" d="M 0 0.0585938 L 224.878906 0.0585938 L 224.878906 224.941406 L 0 224.941406 Z M 0 0.0585938 " fill-opacity="1" fill-rule="nonzero"/><path fill="#32b2ff" d="M 194.613281 35.785156 C 213.386719 55.882812 224.878906 82.863281 224.878906 112.5 C 224.878906 174.558594 174.5 224.941406 112.441406 224.941406 C 82.40625 224.941406 55.101562 213.136719 34.925781 193.921875 L 72.746094 156.476562 C 79.507812 171.675781 94.746094 182.289062 112.441406 182.289062 C 136.402344 182.289062 155.855469 162.835938 155.855469 138.871094 C 155.855469 130.164062 152.191406 117.953125 146.949219 105.148438 C 144.863281 100.054688 142.535156 94.859375 140.109375 89.765625 Z M 29.5 188.386719 C 11.183594 168.378906 0 141.734375 0 112.5 C 0 50.441406 50.382812 0.0585938 112.441406 0.0585938 C 142.070312 0.0585938 169.03125 11.542969 189.132812 30.300781 L 136.519531 82.40625 C 126.085938 61.523438 115.285156 43.933594 115.285156 43.933594 C 114.679688 42.941406 113.601562 42.34375 112.441406 42.34375 C 111.277344 42.34375 110.199219 42.941406 109.59375 43.933594 C 109.59375 43.933594 89.804688 76.15625 77.933594 105.148438 C 72.691406 117.953125 69.023438 130.164062 69.023438 138.871094 C 69.023438 142.089844 69.371094 145.222656 70.039062 148.242188 L 29.496094 188.386719 Z M 135.074219 94.742188 C 137.089844 99.054688 139.015625 103.402344 140.765625 107.683594 C 145.621094 119.542969 149.171875 130.808594 149.171875 138.871094 C 149.171875 159.152344 132.71875 175.613281 112.441406 175.613281 C 96.550781 175.613281 83.011719 165.507812 77.894531 151.382812 Z M 111.921875 169.207031 C 111.921875 169.207031 119.0625 170.441406 127.21875 165.609375 C 132.332031 162.59375 137.9375 157.140625 142.226562 147.195312 C 142.953125 145.503906 142.171875 143.535156 140.480469 142.804688 C 138.789062 142.074219 136.820312 142.859375 136.089844 144.550781 C 127.484375 164.507812 112.960938 162.609375 112.960938 162.609375 C 111.136719 162.324219 109.429688 163.5625 109.144531 165.386719 C 108.851562 167.207031 110.097656 168.921875 111.921875 169.207031 Z M 75.878906 142.457031 C 75.761719 141.277344 75.707031 140.082031 75.707031 138.871094 C 75.707031 130.808594 79.257812 119.542969 84.113281 107.683594 C 93.070312 85.816406 106.601562 62.082031 112.441406 52.1875 C 116.480469 59.023438 124.1875 72.480469 131.523438 87.351562 Z M 75.878906 142.457031 " fill-opacity="1" fill-rule="evenodd"/></g></svg>